# xmcd
#
# Track frame offsets:
#	150
#	10547
#	35491
#	55279
#	81738
#	118431
#	150691
#	168279
#	184602
#	205427
#	234490
#	249167
#
# Disc length: 3540 seconds
#
# Revision: 0
# Processed by: cddbd v1.4PL0 Copyright (c) Steve Scherf et al.
# Submitted via: dBpowerAMP V4.0
#
DISCID=9c0dd20c
DTITLE=郭蘭英 - 南泥灣
DYEAR=1900
DGENRE=
TTITLE0=南泥灣
TTITLE1=我的祖國
TTITLE2=北風吹來-扎紅頭繩
TTITLE3=托夢-笑見青天升
TTITLE4=為甚麼二黑哥還不回來
TTITLE5=八月十五月兒明
TTITLE6=婦女自由歌
TTITLE7=一道道水來一道道山
TTITLE8=根似高山仇似海
TTITLE9=眼看紅軍出征北上
TTITLE10=翻身道情
TTITLE11=人說山西好風光
EXTD=
EXTT0=
EXTT1=
EXTT2=
EXTT3=
EXTT4=
EXTT5=
EXTT6=
EXTT7=
EXTT8=
EXTT9=
EXTT10=
EXTT11=
PLAYORDER=
